<svg xmlns:xlink="http://www.w3.org/1999/xlink"  xmlns="http://www.w3.org/2000/svg" viewBox="0 0 754 483" fill="none" class="flow3-lines opacity-0 absolute left-[21.73%] top-[14.29%] w-[57.29%]"><g clip-path="url(#a-i0im4rbphh)"><path fill="url(#b-i0im4rbphh)" d="M197.47 34.47a.75.75 0 0 0 0 1.06l4.773 4.773a.75.75 0 1 0 1.06-1.06L199.061 35l4.242-4.243a.75.75 0 0 0-1.06-1.06l-4.773 4.773Zm112.56 1.06a.75.75 0 0 0 0-1.06l-4.773-4.773a.75.75 0 1 0-1.06 1.06L308.439 35l-4.242 4.243a.75.75 0 0 0 1.06 1.06l4.773-4.773ZM198 35.75h111.5v-1.5H198v1.5Z"></path><path fill="url(#c-i0im4rbphh)" d="M545.53 35.53a.75.75 0 0 0 0-1.06l-4.773-4.773a.75.75 0 1 0-1.06 1.06L543.939 35l-4.242 4.243a.75.75 0 0 0 1.06 1.06l4.773-4.773Zm-112.56-1.06a.75.75 0 0 0 0 1.06l4.773 4.773a.75.75 0 1 0 1.06-1.06L434.561 35l4.242-4.243a.75.75 0 0 0-1.06-1.06l-4.773 4.773ZM545 34.25H433.5v1.5H545v-1.5Z"></path><path fill="url(#d-i0im4rbphh)" d="M371.97 165.53a.749.749 0 0 0 1.06 0l4.773-4.773a.749.749 0 1 0-1.06-1.06l-4.243 4.242-4.243-4.242a.749.749 0 1 0-1.06 1.06l4.773 4.773ZM371.75 95v70h1.5V95h-1.5Z"></path><path fill="url(#e-i0im4rbphh)" d="M413.97 164.53a.749.749 0 0 0 1.06 0l4.773-4.773a.749.749 0 1 0-1.06-1.06l-4.243 4.242-4.243-4.242a.749.749 0 1 0-1.06 1.06l4.773 4.773Zm192.94-48.826.668.34-.668-.34Zm-4.37 4.37.34.668-.34-.668ZM607.25 95v10.164h1.5V95h-1.5ZM592 120.414H430.5v1.5H592v-1.5Zm-178.25 16.75V164h1.5v-26.836h-1.5Zm16.75-16.75c-2.788 0-4.924-.001-6.629.139-1.714.14-3.058.425-4.251 1.033l.681 1.336c.946-.482 2.071-.742 3.692-.874 1.63-.133 3.694-.134 6.507-.134v-1.5Zm-15.25 16.75c0-2.813.001-4.877.134-6.507.132-1.621.392-2.746.874-3.692l-1.336-.681c-.608 1.192-.893 2.537-1.033 4.251-.14 1.705-.139 3.841-.139 6.629h1.5Zm4.37-15.578a10.741 10.741 0 0 0-4.698 4.698l1.336.681a9.25 9.25 0 0 1 4.043-4.043l-.681-1.336Zm187.63-16.422c0 2.813-.001 4.877-.134 6.507-.132 1.621-.392 2.746-.874 3.692l1.336.681c.608-1.193.893-2.537 1.033-4.251.14-1.705.139-3.841.139-6.629h-1.5ZM592 121.914c2.788 0 4.924.001 6.629-.139 1.714-.14 3.058-.425 4.251-1.033l-.681-1.336c-.946.482-2.071.742-3.692.874-1.63.133-3.694.134-6.507.134v1.5Zm14.242-6.551a9.25 9.25 0 0 1-4.043 4.043l.681 1.336a10.741 10.741 0 0 0 4.698-4.698l-1.336-.681Z"></path><path fill="url(#f-i0im4rbphh)" d="M330.03 164.53a.749.749 0 0 1-1.06 0l-4.773-4.773a.749.749 0 1 1 1.06-1.06l4.243 4.242 4.243-4.242a.749.749 0 1 1 1.06 1.06l-4.773 4.773Zm-5.99-42.473.34-.668-.34.668Zm-185.95-6.55.668-.34-.668.34Zm4.37 4.371.341-.669-.341.669ZM137.75 95v9.967h-1.5V95h1.5ZM153 120.217h160.5v1.5H153v-1.5Zm177.25 16.75V164h-1.5v-27.033h1.5Zm-16.75-16.75c2.788 0 4.924 0 6.629.139 1.714.14 3.058.425 4.251 1.033l-.681 1.337c-.946-.482-2.071-.742-3.692-.875-1.63-.133-3.694-.134-6.507-.134v-1.5Zm15.25 16.75c0-2.812-.001-4.877-.134-6.506-.132-1.622-.392-2.747-.874-3.693l1.336-.681c.608 1.193.893 2.538 1.033 4.251.14 1.706.139 3.842.139 6.629h-1.5Zm-4.37-15.578a10.746 10.746 0 0 1 4.698 4.698l-1.336.681a9.247 9.247 0 0 0-4.043-4.042l.681-1.337Zm-186.63-16.422c0 2.813.001 4.877.134 6.507.132 1.622.392 2.747.874 3.693l-1.336.681c-.608-1.193-.893-2.538-1.033-4.251-.14-1.706-.139-3.842-.139-6.63h1.5Zm15.25 16.75c-2.788 0-4.924.001-6.629-.138-1.714-.14-3.058-.425-4.251-1.033l.681-1.337c.946.482 2.071.742 3.692.875 1.63.133 3.694.133 6.507.133v1.5Zm-14.242-6.55a9.252 9.252 0 0 0 4.043 4.042l-.681 1.337a10.746 10.746 0 0 1-4.698-4.698l1.336-.681Z"></path><path fill="url(#g-i0im4rbphh)" d="M754.43 64.53a.75.75 0 0 0 0-1.06l-4.773-4.773a.75.75 0 1 0-1.06 1.06L752.839 64l-4.242 4.243a.75.75 0 0 0 1.06 1.06l4.773-4.773Zm-52.84 4.93-.668-.34.668.34Zm4.37-4.37-.34-.668.34.668Zm-10.92 185.32.34.668-.34-.668Zm4.37-4.37.668.34-.668-.34Zm-235.91 6.21h221v-1.5h-221v1.5Zm237.75-16.75V80h-1.5v155.5h1.5ZM716.5 64.75h37.4v-1.5h-37.4v1.5ZM701.25 80c0-2.813.001-4.877.134-6.507.132-1.621.392-2.746.874-3.692l-1.336-.681c-.608 1.192-.893 2.537-1.033 4.25-.14 1.706-.139 3.842-.139 6.63h1.5Zm15.25-16.75c-2.788 0-4.924 0-6.629.139-1.714.14-3.058.425-4.251 1.033l.681 1.336c.946-.482 2.071-.742 3.692-.874 1.63-.133 3.694-.134 6.507-.134v-1.5Zm-14.242 6.55a9.25 9.25 0 0 1 4.043-4.042l-.681-1.336a10.746 10.746 0 0 0-4.698 4.698l1.336.68ZM684.5 252.25c2.788 0 4.924.001 6.629-.139 1.714-.14 3.058-.425 4.251-1.033l-.681-1.336c-.946.482-2.071.742-3.692.874-1.63.133-3.694.134-6.507.134v1.5Zm15.25-16.75c0 2.813-.001 4.877-.134 6.507-.132 1.621-.392 2.746-.874 3.692l1.336.681c.608-1.193.893-2.537 1.033-4.251.14-1.705.139-3.841.139-6.629h-1.5Zm-4.37 15.578a10.741 10.741 0 0 0 4.698-4.698l-1.336-.681a9.25 9.25 0 0 1-4.043 4.043l.681 1.336Z"></path><path fill="url(#h-i0im4rbphh)" d="M280.429 263.47a.749.749 0 0 1 0 1.06l-4.773 4.773a.75.75 0 0 1-1.061-1.06l4.243-4.243-4.243-4.243a.749.749 0 1 1 1.061-1.06l4.773 4.773ZM41.809 119.96l-.669.341.669-.341Zm-4.37-4.37.34-.668-.34.668Zm10.92 147.32.34-.668-.34.668Zm-4.37-4.37.668-.341-.669.341Zm235.909 6.21h-221v-1.5h221v1.5ZM42.148 248V130.5h1.5V248h-1.5Zm-15.25-132.75H0v-1.5h26.898v1.5Zm15.25 15.25c0-2.813 0-4.877-.133-6.507-.133-1.621-.393-2.746-.875-3.692l1.337-.681c.608 1.193.893 2.537 1.033 4.251.139 1.705.138 3.841.138 6.629h-1.5Zm-15.25-16.75c2.788 0 4.924-.001 6.63.139 1.713.14 3.058.425 4.25 1.033l-.68 1.336c-.946-.482-2.072-.742-3.693-.874-1.63-.133-3.694-.134-6.507-.134v-1.5Zm14.242 6.551a9.25 9.25 0 0 0-4.042-4.043l.68-1.336a10.746 10.746 0 0 1 4.699 4.698l-1.337.681ZM58.898 264.75c-2.787 0-4.924.001-6.629-.139-1.713-.14-3.058-.425-4.251-1.033l.681-1.336c.946.482 2.071.742 3.693.874 1.63.133 3.694.134 6.506.134v1.5ZM43.648 248c0 2.813.001 4.877.134 6.507.133 1.621.393 2.746.875 3.692l-1.337.681c-.608-1.193-.893-2.537-1.033-4.251-.14-1.705-.139-3.841-.139-6.629h1.5Zm4.37 15.578a10.746 10.746 0 0 1-4.698-4.698l1.337-.681a9.25 9.25 0 0 0 4.042 4.043l-.681 1.336Z"></path><path fill="url(#i-i0im4rbphh)" d="M280.429 307.53a.749.749 0 0 0 0-1.06l-4.773-4.773a.75.75 0 0 0-1.061 1.06l4.243 4.243-4.243 4.243a.749.749 0 1 0 1.061 1.06l4.773-4.773ZM41.809 429.54l-.669-.341.669.341Zm-4.37 4.37.34.668-.34-.668Zm10.92-125.82-.341-.668.34.668Zm-4.37 4.37-.669-.34.668.34Zm235.909-6.21h-221v1.5h221v-1.5ZM42.148 323v96h1.5v-96h-1.5Zm-15.25 111.25H0v1.5h26.898v-1.5ZM42.148 419c0 2.813 0 4.877-.133 6.507-.133 1.621-.393 2.746-.875 3.692l1.337.681c.608-1.193.893-2.537 1.033-4.251.139-1.705.138-3.841.138-6.629h-1.5Zm-15.25 16.75c2.788 0 4.924.001 6.63-.139 1.713-.14 3.058-.425 4.25-1.033l-.68-1.336c-.946.482-2.072.742-3.693.874-1.63.133-3.694.134-6.507.134v1.5Zm14.242-6.551a9.25 9.25 0 0 1-4.042 4.043l.68 1.336a10.746 10.746 0 0 0 4.699-4.698l-1.337-.681ZM58.898 306.25c-2.787 0-4.924-.001-6.629.139-1.713.14-3.058.425-4.251 1.033l.681 1.336c.946-.482 2.071-.742 3.693-.874 1.63-.133 3.694-.134 6.506-.134v-1.5ZM43.648 323c0-2.813.001-4.877.134-6.507.133-1.621.393-2.746.875-3.692l-1.337-.681c-.608 1.193-.893 2.537-1.033 4.251-.14 1.705-.139 3.841-.139 6.629h1.5Zm4.37-15.578a10.746 10.746 0 0 0-4.698 4.698l1.337.681a9.25 9.25 0 0 1 4.042-4.043l-.681-1.336Z"></path><path fill="url(#j-i0im4rbphh)" d="M743.53 474.97a.749.749 0 0 1 0 1.06l-4.773 4.773a.749.749 0 1 1-1.06-1.06l4.242-4.243-4.242-4.243a.749.749 0 1 1 1.06-1.06l4.773 4.773Zm-41.94-4.93.668-.341-.668.341Zm4.37 4.37-.34.668.34-.668Zm-10.92-145.32-.341.668.341-.668Zm4.37 4.37.668-.34-.668.34Zm-235.91-6.21h221v1.5h-221v-1.5ZM701.25 344v115.5h-1.5V344h1.5Zm15.25 130.75H743v1.5h-26.5v-1.5Zm-15.25-15.25c0 2.813.001 4.877.134 6.507.132 1.621.392 2.746.874 3.692l-1.336.681c-.608-1.193-.893-2.537-1.033-4.251-.14-1.705-.139-3.841-.139-6.629h1.5Zm15.25 16.75c-2.788 0-4.924.001-6.629-.139-1.714-.14-3.058-.425-4.251-1.033l.681-1.336c.946.482 2.071.742 3.692.874 1.63.133 3.694.134 6.507.134v1.5Zm-14.242-6.551a9.25 9.25 0 0 0 4.043 4.043l-.681 1.336a10.741 10.741 0 0 1-4.698-4.698l1.336-.681ZM684.5 327.25c2.788 0 4.924-.001 6.629.139 1.714.14 3.058.425 4.251 1.033l-.681 1.336c-.946-.482-2.071-.742-3.692-.874-1.63-.133-3.694-.134-6.507-.134v-1.5ZM699.75 344c0-2.813-.001-4.877-.134-6.507-.132-1.621-.392-2.746-.874-3.692l1.336-.681c.608 1.193.893 2.537 1.033 4.251.14 1.705.139 3.841.139 6.629h-1.5Zm-4.37-15.578a10.741 10.741 0 0 1 4.698 4.698l-1.336.681a9.25 9.25 0 0 0-4.043-4.043l.681-1.336Z"></path><path fill="url(#k-i0im4rbphh)" d="M742.18 291.53a.749.749 0 0 0 0-1.06l-4.773-4.773a.749.749 0 1 0-1.06 1.06l4.242 4.243-4.242 4.243a.749.749 0 1 0 1.06 1.06l4.773-4.773Zm-278.68.22h278.15v-1.5H463.5v1.5Z"></path></g><defs><linearGradient id="b-i0im4rbphh" x1="205.229" x2="304.18" y1="35" y2="35" gradientUnits="userSpaceOnUse"><stop stop-color="#fff" stop-opacity="0.5"></stop><stop offset="1" stop-color="#fff"></stop></linearGradient><linearGradient id="c-i0im4rbphh" x1="537.771" x2="438.82" y1="35" y2="35" gradientUnits="userSpaceOnUse"><stop stop-color="#fff" stop-opacity="0.5"></stop><stop offset="1" stop-color="#fff"></stop></linearGradient><linearGradient id="d-i0im4rbphh" x1="373" x2="373" y1="95" y2="165" gradientUnits="userSpaceOnUse"><stop stop-color="#fff" stop-opacity="0.5"></stop><stop offset="1" stop-color="#fff"></stop></linearGradient><linearGradient id="e-i0im4rbphh" x1="497.5" x2="497.5" y1="97" y2="164" gradientUnits="userSpaceOnUse"><stop stop-color="#fff" stop-opacity="0.5"></stop><stop offset="1" stop-color="#fff"></stop></linearGradient><linearGradient id="f-i0im4rbphh" x1="246.5" x2="246.5" y1="97" y2="164" gradientUnits="userSpaceOnUse"><stop stop-color="#fff" stop-opacity="0.5"></stop><stop offset="1" stop-color="#fff"></stop></linearGradient><linearGradient id="g-i0im4rbphh" x1="747" x2="463.5" y1="58" y2="255.5" gradientUnits="userSpaceOnUse"><stop stop-color="#fff"></stop><stop offset="1" stop-color="#fff" stop-opacity="0.5"></stop></linearGradient><linearGradient id="h-i0im4rbphh" x1="-3.602" x2="279.898" y1="58" y2="255.5" gradientUnits="userSpaceOnUse"><stop stop-color="#fff" stop-opacity="0.5"></stop><stop offset="1" stop-color="#fff"></stop></linearGradient><linearGradient id="i-i0im4rbphh" x1="-3.602" x2="279.898" y1="491.5" y2="294" gradientUnits="userSpaceOnUse"><stop stop-color="#fff" stop-opacity="0.5"></stop><stop offset="1" stop-color="#fff"></stop></linearGradient><linearGradient id="j-i0im4rbphh" x1="747" x2="463.5" y1="521.5" y2="324" gradientUnits="userSpaceOnUse"><stop stop-color="#fff"></stop><stop offset="1" stop-color="#fff" stop-opacity="0.5"></stop></linearGradient><linearGradient id="k-i0im4rbphh" x1="741.5" x2="486.5" y1="304.5" y2="304.5" gradientUnits="userSpaceOnUse"><stop stop-color="#fff"></stop><stop offset="1" stop-color="#fff" stop-opacity="0.5"></stop></linearGradient><clipPath id="a"><path fill="#fff" d="M0 0h754v483H0z"></path></clipPath></defs></svg>